<svg width="6" height="9" viewBox="0 0 6 9" fill="none" xmlns="http://www.w3.org/2000/svg">
<path d="M0.771447 8.04879C0.576184 8.24405 0.576184 8.56064 0.771447 8.7559C0.966709 8.95116 1.28329 8.95116 1.47855 8.7559L0.771447 8.04879ZM4.875 4.65234L5.22855 5.0059C5.42382 4.81064 5.42382 4.49405 5.22855 4.29879L4.875 4.65234ZM1.47855 0.54879C1.28329 0.353528 0.966709 0.353528 0.771447 0.54879C0.576184 0.744053 0.576184 1.06064 0.771447 1.2559L1.47855 0.54879ZM1.47855 8.7559L5.22855 5.0059L4.52145 4.29879L0.771447 8.04879L1.47855 8.7559ZM5.22855 4.29879L1.47855 0.54879L0.771447 1.2559L4.52145 5.0059L5.22855 4.29879Z" fill="#03C75A"/>
</svg>
