<svg width="56" height="12" viewBox="0 0 56 12" fill="none" xmlns="http://www.w3.org/2000/svg">
<path fill-rule="evenodd" clip-rule="evenodd" d="M53.2998 7.91487L52.9698 8.05481L55.6398 11.7629H52.0698L50.0698 8.76443H48.8698V11.7629H45.5098V1.00845H50.0298C51.3115 0.930587 52.5887 1.22197 53.7098 1.84801C54.1992 2.17156 54.5929 2.62045 54.8497 3.14784C55.1065 3.67524 55.217 4.26182 55.1698 4.84645C55.2157 5.48871 55.0603 6.12933 54.7252 6.67924C54.39 7.22915 53.8918 7.66103 53.2998 7.91487ZM48.8098 6.05585H50.6498V6.02586C50.9495 6.02586 51.2369 5.90685 51.4488 5.69504C51.6607 5.48324 51.7798 5.19598 51.7798 4.89644C51.7798 4.59691 51.6607 4.30962 51.4488 4.09782C51.2369 3.88601 50.9495 3.76703 50.6498 3.76703H48.8098V6.05585ZM7.28 6.75561L3.3 1.03857H0V11.723H3.46V6.006L7.44 11.723H10.74V1.03857H7.28V6.75561ZM16.0298 1.03857L11.8398 11.763H15.3998L15.9098 10.3537H19.9098L20.4198 11.763H23.9799L19.7898 1.08857L16.0298 1.03857ZM16.7198 7.73511L17.9098 4.40685L19.1298 7.76509L16.7198 7.73511ZM38.8102 7.66513H43.6802V5.09647H38.8102V3.65722H43.7302V1.03857H35.4102V11.723H43.8402V9.10439H38.8102V7.66513ZM25.7202 1.03857L28.2302 8.06493L30.7402 1.03857H34.3102L30.1202 11.723H26.3402L22.1602 1.03857H25.7202Z" fill="#03C75A"/>
</svg>
