<svg width="454" height="240" viewBox="0 0 454 240" fill="none" xmlns="http://www.w3.org/2000/svg">
<path d="M453.121 238.996H1.12109V239.996H453.121V238.996Z" fill="black" fill-opacity="0.1"/>
<path d="M293.361 237.537C302.767 237.591 309.952 229.16 308.392 219.884C306.149 206.576 303.277 189.15 302.009 180.015C299.798 163.965 291.139 152.056 278.775 146.28L238.386 129.797L228.611 132.083L218.836 129.797L178.436 146.28C165.844 152.403 157.413 163.965 155.202 180.015C153.945 189.15 151.062 206.576 148.819 219.884C147.259 229.16 154.444 237.591 163.85 237.537L228.6 237.136L293.361 237.537Z" fill="white" stroke="black" stroke-width="3" stroke-miterlimit="10"/>
<path fill-rule="evenodd" clip-rule="evenodd" d="M242.379 132L227.381 145L213.379 132" fill="white"/>
<path d="M242.379 132L227.381 145L213.379 132" stroke="black" stroke-width="3" stroke-miterlimit="10"/>
<path d="M216.379 154L215.24 154.976L216.194 156.089L217.329 155.161L216.379 154ZM226.429 143.839L215.429 152.839L217.329 155.161L228.329 146.161L226.429 143.839ZM217.518 153.024L202.518 135.524L200.24 137.476L215.24 154.976L217.518 153.024Z" fill="black"/>
<path d="M227.879 145.5L238.191 154L253.879 136" stroke="black" stroke-width="3" stroke-miterlimit="10"/>
<path d="M220.879 151L226.879 146L232.879 151L238.879 214H214.879L220.879 151Z" fill="#0B9147" stroke="black" stroke-width="3" stroke-miterlimit="10"/>
<path d="M274.569 237H181.189C178.26 237 175.879 234.641 175.879 231.74V173.26C175.879 170.359 178.26 168 181.189 168H274.569C277.498 168 279.879 170.359 279.879 173.26V231.74C279.879 234.651 277.508 237 274.569 237Z" fill="white" stroke="black" stroke-width="3" stroke-miterlimit="10"/>
<g clip-path="url(#clip0_990_40538)">
<path d="M238.831 204.258L227.078 211.112C227.036 211.138 227.008 211.185 227.008 211.233V214.989C227.008 215.074 227.08 215.138 227.165 215.13C227.368 215.108 227.568 215.044 227.749 214.939L238.249 208.884C238.714 208.617 239 208.121 239 207.585V204.353C239 204.266 238.905 204.212 238.831 204.256V204.258Z" fill="url(#paint0_linear_990_40538)"/>
<path d="M227.749 214.938L230.684 213.246L218.744 206.318V196.122L215.459 194.475C215.169 194.755 215 195.141 215 195.554V207.584C215 208.12 215.286 208.616 215.751 208.883L226.251 214.938C226.714 215.206 227.286 215.206 227.749 214.938Z" fill="url(#paint1_linear_990_40538)"/>
<path d="M227.749 188.203C227.286 187.935 226.714 187.935 226.251 188.203L215.751 194.255C215.286 194.523 215 195.019 215 195.554V198.968L227.016 192.068L234.972 196.644C235.159 196.751 235.389 196.751 235.574 196.644L238.766 194.813C238.867 194.755 238.867 194.612 238.766 194.553L227.749 188.203Z" fill="url(#paint2_linear_990_40538)"/>
<path d="M227.552 200.826C228.317 200.826 229.008 200.516 229.51 200.014C230.009 199.513 230.321 198.82 230.321 198.056C230.321 197.293 230.011 196.6 229.51 196.099C229.008 195.599 228.315 195.287 227.552 195.287C226.788 195.287 226.096 195.597 225.594 196.099C225.095 196.598 224.782 197.293 224.782 198.056C224.782 198.82 225.093 199.513 225.594 200.014C226.096 200.516 226.788 200.826 227.552 200.826Z" fill="#465AFF"/>
<path d="M227.552 201.77C224.224 201.77 222.226 203.544 222.226 205.32C222.226 206.209 224.224 207.095 227.552 207.095C230.676 207.095 232.877 206.207 232.877 205.32C232.877 203.546 230.786 201.77 227.552 201.77Z" fill="#465AFF"/>
<path d="M227.552 200.826C228.317 200.826 229.008 200.516 229.51 200.014C230.009 199.513 230.321 198.82 230.321 198.056C230.321 197.293 230.011 196.6 229.51 196.099C229.008 195.599 228.315 195.287 227.552 195.287C226.788 195.287 226.096 195.597 225.594 196.099C225.095 196.598 224.782 197.293 224.782 198.056C224.782 198.82 225.093 199.513 225.594 200.014C226.096 200.516 226.788 200.826 227.552 200.826Z" fill="url(#paint3_linear_990_40538)"/>
<path d="M227.552 201.77C224.224 201.77 222.226 203.544 222.226 205.32C222.226 206.209 224.224 207.095 227.552 207.095C230.676 207.095 232.877 206.207 232.877 205.32C232.877 203.546 230.786 201.77 227.552 201.77Z" fill="url(#paint4_linear_990_40538)"/>
</g>
<path d="M197.157 111.742C200.253 111.324 202.239 107.101 201.593 102.308C200.947 97.5161 197.913 93.9694 194.817 94.3868C191.721 94.8042 189.735 99.0276 190.381 103.82C191.027 108.612 194.06 112.159 197.157 111.742Z" fill="white" stroke="black" stroke-width="3.28122" stroke-miterlimit="10"/>
<path d="M264.612 103.822C265.258 99.03 263.272 94.8067 260.176 94.3893C257.08 93.9719 254.046 97.5185 253.4 102.311C252.754 107.103 254.74 111.327 257.836 111.744C260.932 112.161 263.966 108.615 264.612 103.822Z" fill="white" stroke="black" stroke-width="3.28122" stroke-miterlimit="10"/>
<path d="M258.358 104.709C255.107 120.78 243.869 137.22 227.7 137.22C211.532 137.22 199.817 120.845 197.043 104.709C191.473 72.1985 210.762 63.334 227.7 63.334C244.638 63.334 263.928 77.1293 258.358 104.709Z" fill="white" stroke="black" stroke-width="3" stroke-miterlimit="10"/>
<path d="M235.156 121.191C234.365 122.882 231.634 124.627 227.7 124.627C223.766 124.627 220.927 122.904 220.244 121.191" fill="#FBFBFB"/>
<path d="M235.156 121.191C234.365 122.882 231.634 124.627 227.7 124.627C223.766 124.627 220.927 122.904 220.244 121.191" stroke="black" stroke-width="3" stroke-miterlimit="10" stroke-linecap="round" stroke-linejoin="round"/>
<path d="M230.867 112.002C230.368 112.836 229.241 113.584 227.702 113.584C226.207 113.584 225.069 112.88 224.57 112.078" fill="#FBFBFB"/>
<path d="M230.867 112.002C230.368 112.836 229.241 113.584 227.702 113.584C226.207 113.584 225.069 112.88 224.57 112.078" stroke="black" stroke-width="3" stroke-miterlimit="10" stroke-linecap="round" stroke-linejoin="round"/>
<path d="M213.796 100.244C215.023 100.244 216.017 99.2493 216.017 98.0223C216.017 96.7954 215.023 95.8008 213.796 95.8008C212.569 95.8008 211.574 96.7954 211.574 98.0223C211.574 99.2493 212.569 100.244 213.796 100.244Z" fill="black"/>
<path d="M241.604 100.244C242.831 100.244 243.826 99.2493 243.826 98.0223C243.826 96.7954 242.831 95.8008 241.604 95.8008C240.377 95.8008 239.383 96.7954 239.383 98.0223C239.383 99.2493 240.377 100.244 241.604 100.244Z" fill="black"/>
<path d="M259.379 98.5L252.294 90.2254C244.99 89.692 235.702 86.2114 233.515 82.3175C231.328 78.4236 233.299 78.637 227.008 75.7299C220.717 72.8228 211.159 77.3435 211.159 77.3435C206.772 92.0656 196.379 98.5 196.379 98.5C195.879 91.5 191.787 94.346 191.787 94.346C191.787 94.346 190.896 91.8923 189.991 84.0778C189.586 80.6373 190.329 77.2768 191.368 73.9696C193.056 68.5822 197.524 64.1149 202.978 62.4079C203.154 60.6743 204.193 58.9674 205.435 57.7539C206.677 56.5404 208.23 55.6469 209.796 54.8735C209.796 54.8735 215.506 50.8196 227.494 51.0063C234.244 51.0996 239.199 51.9397 244.329 53.7933C249.459 55.6469 262.891 64.8616 264.255 74.5697C265.618 84.2778 264.471 88.2651 263.445 94.426C263.445 94.4127 259.879 92.5 259.379 98.5Z" fill="black" stroke="black" stroke-width="2" stroke-miterlimit="10" stroke-linecap="round" stroke-linejoin="round"/>
<rect x="102" y="6" width="60" height="60" rx="30" fill="white"/>
<rect x="102.5" y="6.5" width="59" height="59" rx="29.5" stroke="black" stroke-opacity="0.1"/>
<path d="M140.035 47.3588L131.882 52.0637L118 44.0461V28.0175L131.882 20L145.771 28.0175V38.6259" stroke="#03C75A" stroke-width="1.35243" stroke-miterlimit="10" stroke-linejoin="round"/>
<path d="M121.738 42.0469L118 44.2059L131.882 52.2235" stroke="#03C75A" stroke-width="0.901618" stroke-miterlimit="10" stroke-linecap="round" stroke-linejoin="round"/>
<path d="M132.031 47.7001L140.145 42.8986V36.2668L140.358 36.2346C140.628 36.0799 140.847 35.7447 140.847 35.2678V30.5759L140.744 30.563L131.154 25.3555L125.85 28.5135C122.776 30.1441 122.956 33.0443 122.956 33.0443L122.95 34.6491C122.95 35.3258 123.143 36.0992 123.62 36.6921V42.8986L132.031 47.7001Z" stroke="#03C75A" stroke-width="1.35243" stroke-miterlimit="10" stroke-linecap="round" stroke-linejoin="round"/>
<path d="M128.343 45.3448V41.5874C128.343 41.4907 128.292 41.4069 128.208 41.3554L126.217 40.2017C126.126 40.1502 126.017 40.2146 126.017 40.3177V43.9978" stroke="#03C75A" stroke-width="0.901618" stroke-miterlimit="10" stroke-linecap="round" stroke-linejoin="round"/>
<path d="M131.884 47.7301V40.7695" stroke="#03C75A" stroke-width="0.901618" stroke-miterlimit="10" stroke-linecap="round" stroke-linejoin="round"/>
<path d="M126.211 34.7913L126.205 36.2801C126.205 37.279 125.496 37.6851 124.625 37.1824C123.755 36.6797 123.053 35.4616 123.059 34.4626L123.066 33.2123C123.066 33.2123 122.879 30.3378 125.934 28.7201L131.193 25.5879L140.699 30.7503" stroke="#03C75A" stroke-width="0.901618" stroke-miterlimit="10" stroke-linecap="round" stroke-linejoin="round"/>
<path d="M129.369 36.5516L129.362 38.0404C129.362 39.0394 128.653 39.4454 127.783 38.9427C126.913 38.44 126.211 37.2219 126.217 36.223L126.224 34.9726C126.224 34.9726 126.037 32.0982 129.092 30.4805L134.293 27.5352" stroke="#03C75A" stroke-width="0.901618" stroke-miterlimit="10" stroke-linecap="round" stroke-linejoin="round"/>
<path d="M132.288 40.5013C132.011 40.8622 131.508 40.9267 130.941 40.598C130.071 40.0953 129.368 38.8772 129.375 37.8782L129.381 36.6279C129.381 36.6279 129.194 33.7535 132.249 32.1358L137.283 29.2871" stroke="#03C75A" stroke-width="0.901618" stroke-miterlimit="10" stroke-linecap="round" stroke-linejoin="round"/>
<path d="M132.257 38.6445C132.257 38.6445 132.07 35.7056 135.183 34.0557L140.848 30.8848V34.9386C140.848 35.422 140.525 35.7636 140.255 35.9183L132.25 40.5844L132.257 38.6445Z" stroke="#03C75A" stroke-width="0.901618" stroke-miterlimit="10" stroke-linecap="round" stroke-linejoin="round"/>
<path d="M149.065 44.9361C149.065 44.7814 149.053 44.6332 149.033 44.4849L150 43.5182L149.104 41.965L147.764 42.3259C147.538 42.1583 147.293 42.0165 147.029 41.9134L146.668 40.5664H144.876L144.509 41.9327C144.258 42.0423 144.026 42.1776 143.813 42.3388L142.447 41.9714L141.551 43.5246L142.55 44.5236C142.53 44.659 142.524 44.8007 142.524 44.9361C142.524 45.0714 142.53 45.2003 142.55 45.3292L141.551 46.3282L142.447 47.8814L143.787 47.5205C144.013 47.6945 144.251 47.8363 144.515 47.9523L144.87 49.3573H146.662L147.016 47.9717C147.293 47.8621 147.551 47.7139 147.783 47.5334L149.098 47.8814L149.994 46.3282L149.033 45.3679C149.053 45.2197 149.065 45.0779 149.065 44.9361ZM145.791 46.2895C145.044 46.2895 144.438 45.6837 144.438 44.9361C144.438 44.1885 145.044 43.5826 145.791 43.5826C146.539 43.5826 147.145 44.1885 147.145 44.9361C147.145 45.6837 146.545 46.2895 145.791 46.2895Z" stroke="#03C75A" stroke-width="1.37797" stroke-miterlimit="10" stroke-linejoin="round"/>
<rect x="35" y="142" width="60" height="60" rx="30" fill="white"/>
<rect x="35.5" y="142.5" width="59" height="59" rx="29.5" stroke="black" stroke-opacity="0.1"/>
<rect x="295" y="6" width="60" height="60" rx="30" fill="white"/>
<rect x="295.5" y="6.5" width="59" height="59" rx="29.5" stroke="black" stroke-opacity="0.1"/>
<g filter="url(#filter0_ii_990_40538)">
<path d="M339 44.1364L339 35.2367C339 35.0746 338.824 34.9736 338.684 35.0553L325.006 43.0321V52.1864L332.024 48.1599L332.025 48.1614L339 44.1364Z" fill="#4242FF"/>
</g>
<g filter="url(#filter1_ii_990_40538)">
<path d="M332.923 47.5995L319.03 39.5357V32.1637L311 28.1387V36.1504V44.1621L317.975 48.1871V48.1886L324.972 52.2136V52.1267L325 52.2122L332.923 47.5995Z" fill="#3277FF"/>
</g>
<g filter="url(#filter2_ii_990_40538)">
<path d="M311.018 28.1251L311 37.2767L325.011 29.2305L330.764 32.5399C330.898 32.6174 331.064 32.6176 331.199 32.5402L338.452 28.3814C338.651 28.2673 338.653 27.9806 338.455 27.8647L331.933 24.0442V24.0456L324.923 20L317.959 24.0456L317.962 24.0471L311 28.0913" fill="#0ACAAA"/>
</g>
<rect x="359" y="142" width="60" height="60" rx="30" fill="white"/>
<rect x="359.5" y="142.5" width="59" height="59" rx="29.5" stroke="black" stroke-opacity="0.1"/>
<path d="M393.274 172.844L385.022 160.931C384.618 160.348 383.953 160 383.244 160H378.442C377.646 160 377 160.646 377 161.442V182.558C377 183.354 377.646 184 378.442 184H383.284C384.08 184 384.726 183.354 384.726 182.558V171.156L392.978 183.069C393.382 183.652 394.047 184 394.756 184H399.558C400.354 184 401 183.354 401 182.558V161.442C401 160.646 400.354 160 399.558 160H394.716C393.92 160 393.274 160.646 393.274 161.442V172.844Z" fill="#03C75A"/>
<path d="M61.8946 175.697L61.4792 174.139H59.6788L59.273 175.697H57.8396L59.6217 169.223H61.6204L63.4025 175.697H61.8946ZM60.622 170.569H60.5466L59.9068 173.018H61.2653L60.622 170.569Z" fill="#465AFF"/>
<path d="M64.4058 175.697V169.223H66.9493C67.2416 169.218 67.5323 169.267 67.8065 169.367C68.0473 169.456 68.2647 169.597 68.4427 169.78C68.6193 169.966 68.7526 170.188 68.8334 170.43C69.0096 170.986 69.0096 171.582 68.8334 172.138C68.7526 172.38 68.6193 172.602 68.4427 172.788C68.2648 172.971 68.0474 173.112 67.8065 173.201C67.5323 173.301 67.2416 173.35 66.9493 173.345H65.8284V175.697H64.4058ZM65.8284 172.217H66.5915C66.9244 172.217 67.1552 172.155 67.2839 172.031C67.4126 171.908 67.4769 171.703 67.4769 171.419V171.141C67.4769 170.856 67.4126 170.652 67.2839 170.528C67.1552 170.404 66.9244 170.343 66.5915 170.343H65.8284V172.217Z" fill="#465AFF"/>
<path d="M69.5127 175.697V174.669H70.9131V170.251H69.5127V169.223H73.7077V170.253H72.3072V174.671H73.7077V175.697H69.5127Z" fill="#465AFF"/>
<path d="M79.7955 175.718L65.5848 183.983C65.559 183.998 65.5376 184.02 65.5227 184.046C65.5078 184.071 65.5 184.101 65.5 184.13V188.661C65.5 188.685 65.505 188.709 65.5148 188.731C65.5246 188.752 65.5389 188.772 65.5568 188.788C65.5747 188.804 65.5958 188.816 65.6186 188.823C65.6415 188.831 65.6657 188.833 65.6895 188.83C65.9387 188.803 66.1794 188.725 66.3964 188.6L79.0932 181.299C79.369 181.14 79.598 180.912 79.7572 180.637C79.9164 180.362 80.0002 180.05 80 179.732V175.835C80 175.811 79.9937 175.788 79.9817 175.767C79.9697 175.746 79.9525 175.729 79.9317 175.717C79.911 175.705 79.8875 175.699 79.8636 175.699C79.8396 175.699 79.8162 175.706 79.7955 175.718Z" fill="url(#paint5_linear_990_40538)"/>
<path d="M66.4194 188.586L69.9686 186.54L55.5283 178.161V165.833L51.5556 163.842C51.38 164.011 51.2404 164.214 51.1449 164.438C51.0495 164.662 51.0002 164.903 51 165.147V179.695C50.9998 180.013 51.0836 180.326 51.2428 180.602C51.402 180.878 51.6311 181.107 51.907 181.266L64.6053 188.586C64.8811 188.745 65.1939 188.829 65.5124 188.829C65.8308 188.829 66.1436 188.745 66.4194 188.586Z" fill="url(#paint6_linear_990_40538)"/>
<path d="M66.385 156.244C66.1099 156.084 65.7978 156 65.48 156C65.1623 156 64.8502 156.084 64.575 156.244L51.905 163.594C51.6298 163.753 51.4013 163.983 51.2424 164.26C51.0835 164.537 50.9999 164.851 51 165.171V169.314L65.4981 160.937L75.098 166.492C75.2086 166.556 75.3339 166.589 75.4615 166.589C75.5891 166.589 75.7145 166.556 75.8251 166.492L79.6144 164.306C79.6484 164.286 79.6767 164.258 79.6964 164.224C79.7161 164.19 79.7264 164.151 79.7264 164.112C79.7264 164.072 79.7161 164.033 79.6964 163.999C79.6767 163.965 79.6484 163.937 79.6144 163.917L66.385 156.244Z" fill="url(#paint7_linear_990_40538)"/>
<defs>
<filter id="filter0_ii_990_40538" x="325.006" y="34.943" width="13.994" height="17.3249" filterUnits="userSpaceOnUse" color-interpolation-filters="sRGB">
<feFlood flood-opacity="0" result="BackgroundImageFix"/>
<feBlend mode="normal" in="SourceGraphic" in2="BackgroundImageFix" result="shape"/>
<feColorMatrix in="SourceAlpha" type="matrix" values="0 0 0 0 0 0 0 0 0 0 0 0 0 0 0 0 0 0 127 0" result="hardAlpha"/>
<feOffset dy="-0.329407"/>
<feGaussianBlur stdDeviation="0.0411759"/>
<feComposite in2="hardAlpha" operator="arithmetic" k2="-1" k3="1"/>
<feColorMatrix type="matrix" values="0 0 0 0 0 0 0 0 0 0 0 0 0 0 0 0 0 0 0.15 0"/>
<feBlend mode="normal" in2="shape" result="effect1_innerShadow_990_40538"/>
<feColorMatrix in="SourceAlpha" type="matrix" values="0 0 0 0 0 0 0 0 0 0 0 0 0 0 0 0 0 0 127 0" result="hardAlpha"/>
<feOffset dy="0.329407"/>
<feGaussianBlur stdDeviation="0.0411759"/>
<feComposite in2="hardAlpha" operator="arithmetic" k2="-1" k3="1"/>
<feColorMatrix type="matrix" values="0 0 0 0 1 0 0 0 0 1 0 0 0 0 1 0 0 0 0.15 0"/>
<feBlend mode="normal" in2="effect1_innerShadow_990_40538" result="effect2_innerShadow_990_40538"/>
</filter>
<filter id="filter1_ii_990_40538" x="311" y="28.0563" width="21.9235" height="24.2389" filterUnits="userSpaceOnUse" color-interpolation-filters="sRGB">
<feFlood flood-opacity="0" result="BackgroundImageFix"/>
<feBlend mode="normal" in="SourceGraphic" in2="BackgroundImageFix" result="shape"/>
<feColorMatrix in="SourceAlpha" type="matrix" values="0 0 0 0 0 0 0 0 0 0 0 0 0 0 0 0 0 0 127 0" result="hardAlpha"/>
<feOffset dy="-0.329407"/>
<feGaussianBlur stdDeviation="0.0411759"/>
<feComposite in2="hardAlpha" operator="arithmetic" k2="-1" k3="1"/>
<feColorMatrix type="matrix" values="0 0 0 0 0 0 0 0 0 0 0 0 0 0 0 0 0 0 0.15 0"/>
<feBlend mode="normal" in2="shape" result="effect1_innerShadow_990_40538"/>
<feColorMatrix in="SourceAlpha" type="matrix" values="0 0 0 0 0 0 0 0 0 0 0 0 0 0 0 0 0 0 127 0" result="hardAlpha"/>
<feOffset dy="0.329407"/>
<feGaussianBlur stdDeviation="0.0411759"/>
<feComposite in2="hardAlpha" operator="arithmetic" k2="-1" k3="1"/>
<feColorMatrix type="matrix" values="0 0 0 0 1 0 0 0 0 1 0 0 0 0 1 0 0 0 0.15 0"/>
<feBlend mode="normal" in2="effect1_innerShadow_990_40538" result="effect2_innerShadow_990_40538"/>
</filter>
<filter id="filter2_ii_990_40538" x="311" y="19.9176" width="27.6023" height="17.442" filterUnits="userSpaceOnUse" color-interpolation-filters="sRGB">
<feFlood flood-opacity="0" result="BackgroundImageFix"/>
<feBlend mode="normal" in="SourceGraphic" in2="BackgroundImageFix" result="shape"/>
<feColorMatrix in="SourceAlpha" type="matrix" values="0 0 0 0 0 0 0 0 0 0 0 0 0 0 0 0 0 0 127 0" result="hardAlpha"/>
<feOffset dy="-0.329407"/>
<feGaussianBlur stdDeviation="0.0411759"/>
<feComposite in2="hardAlpha" operator="arithmetic" k2="-1" k3="1"/>
<feColorMatrix type="matrix" values="0 0 0 0 0 0 0 0 0 0 0 0 0 0 0 0 0 0 0.15 0"/>
<feBlend mode="normal" in2="shape" result="effect1_innerShadow_990_40538"/>
<feColorMatrix in="SourceAlpha" type="matrix" values="0 0 0 0 0 0 0 0 0 0 0 0 0 0 0 0 0 0 127 0" result="hardAlpha"/>
<feOffset dy="0.329407"/>
<feGaussianBlur stdDeviation="0.0411759"/>
<feComposite in2="hardAlpha" operator="arithmetic" k2="-1" k3="1"/>
<feColorMatrix type="matrix" values="0 0 0 0 1 0 0 0 0 1 0 0 0 0 1 0 0 0 0.15 0"/>
<feBlend mode="normal" in2="effect1_innerShadow_990_40538" result="effect2_innerShadow_990_40538"/>
</filter>
<linearGradient id="paint0_linear_990_40538" x1="237.346" y1="204.548" x2="229.785" y2="213.45" gradientUnits="userSpaceOnUse">
<stop stop-color="#465AFF"/>
<stop offset="0.85" stop-color="#465AFF"/>
<stop offset="1" stop-color="#3B50FC"/>
</linearGradient>
<linearGradient id="paint1_linear_990_40538" x1="215.089" y1="198.183" x2="225.288" y2="214.557" gradientUnits="userSpaceOnUse">
<stop stop-color="#4474FF"/>
<stop offset="0.23" stop-color="#507DFF"/>
<stop offset="1" stop-color="#507DFF"/>
</linearGradient>
<linearGradient id="paint2_linear_990_40538" x1="229.365" y1="191.695" x2="217.28" y2="207.496" gradientUnits="userSpaceOnUse">
<stop stop-color="#00D296"/>
<stop offset="1" stop-color="#41AFFF"/>
</linearGradient>
<linearGradient id="paint3_linear_990_40538" x1="231.743" y1="206.731" x2="223.352" y2="198.34" gradientUnits="userSpaceOnUse">
<stop stop-color="#465AFF"/>
<stop offset="1" stop-color="#4678FF"/>
</linearGradient>
<linearGradient id="paint4_linear_990_40538" x1="231.743" y1="206.73" x2="223.352" y2="198.34" gradientUnits="userSpaceOnUse">
<stop stop-color="#465AFF"/>
<stop offset="1" stop-color="#4678FF"/>
</linearGradient>
<linearGradient id="paint5_linear_990_40538" x1="77.9995" y1="176.067" x2="68.8851" y2="186.827" gradientUnits="userSpaceOnUse">
<stop stop-color="#465AFF"/>
<stop offset="0.85" stop-color="#465AFF"/>
<stop offset="1" stop-color="#3B50FC"/>
</linearGradient>
<linearGradient id="paint6_linear_990_40538" x1="51.1061" y1="168.324" x2="63.4409" y2="188.127" gradientUnits="userSpaceOnUse">
<stop stop-color="#4474FF"/>
<stop offset="0.23" stop-color="#507DFF"/>
<stop offset="1" stop-color="#507DFF"/>
</linearGradient>
<linearGradient id="paint7_linear_990_40538" x1="68.319" y1="160.484" x2="53.6288" y2="179.572" gradientUnits="userSpaceOnUse">
<stop stop-color="#00D296"/>
<stop offset="1" stop-color="#41AFFF"/>
</linearGradient>
<clipPath id="clip0_990_40538">
<rect width="24" height="27.138" fill="white" transform="translate(215 188)"/>
</clipPath>
</defs>
</svg>
