<?xml version="1.0" encoding="UTF-8"?>
<svg width="87" height="64" viewBox="0 0 87 64" xmlns="http://www.w3.org/2000/svg" xmlns:xlink="http://www.w3.org/1999/xlink">
<view id="analysis" viewBox="65 23 22 21"/>
<svg width="22" height="21" viewBox="-1 -1 22 21" x="65" y="23" xmlns="http://www.w3.org/2000/svg">
<g stroke="#FFF" fill="none" fill-rule="evenodd">
<path d="M.5.5h19v14H.5z"/>
<path stroke-linecap="square" d="M3.5 10l5-5L12 9l4-4M10 15v3M5.5 18h9"/>
</g>
</svg>
<view id="d-commerce" viewBox="65 0 22 23"/>
<svg width="22" height="23" viewBox="-1 -1 22 23" x="65" xmlns="http://www.w3.org/2000/svg">
<defs>
<path id="ba" d="M.473 0l6.521.06a8.1 8.1 0 018.025 8.1v1.835a8.1 8.1 0 01-8.1 8.1H.473V0z"/>
</defs><g fill="none" fill-rule="evenodd">
<g transform="translate(.468 1.695)">
<mask id="bb" fill="#fff">
<use xlink:href="#ba"/>
</mask>
<path stroke="#FFF" d="M-1.89 3.214l4.535.01.01 4.535 16.331.337" mask="url(#bb)" transform="rotate(-45 8.548 5.655)"/>
</g>
<path stroke="#FFF" d="M6.337 13.004L18.5 1.694m-18-.189V18.5h6.4a7.6 7.6 0 007.6-7.6V9.162a7.6 7.6 0 00-7.532-7.6L.5 1.506zm13-.005h5v5"/>
</g>
</svg>
<view id="download" viewBox="0 38 24 26"/>
<svg width="24" height="26" viewBox="-1 -1 24 26" y="38" xmlns="http://www.w3.org/2000/svg">
<g stroke="#FFF" fill="none" fill-rule="evenodd">
<path d="M11 21H1V1h17v9"/>
<path d="M4.5 1v20M7.5 6.5h7M7.5 8.5h7" stroke-linecap="square"/>
<path d="M18.5 13.5h-4V18h-1.883l3.883 4.668L20.383 18H18.5v-4.5z"/>
</g></svg><view id="partner" viewBox="24 38 26 23"/>
<svg width="26" height="23" viewBox="-1 -1 26 23" x="24" y="38" xmlns="http://www.w3.org/2000/svg">
<g stroke="#FFF" fill="none" fill-rule="evenodd">
<path d="M16.72 20.073h6.73V14.84l.002-.032c0-.012-.003-.022-.003-.033v-.064l-.005-.005a1.196 1.196 0 00-.572-.926l-.007-.009-5.121-2.957v-1.06a3.788 3.788 0 001.612-3.106V4.786C19.356 2.696 17.67 1 15.591 1a3.76 3.76 0 00-3.253 1.879"/>
<path d="M16.722 14.807l-.002-.034v-.063l-.003-.006a1.201 1.201 0 00-.573-.925l-.008-.009-5.122-2.957v-1.06a3.786 3.786 0 001.614-3.106V4.786C12.628 2.695 10.942 1 8.862 1 6.783 1 5.097 2.695 5.097 4.786v1.86c0 1.288.639 2.422 1.614 3.107v1.06l-5.117 2.953-.005.007c-.351.21-.589.594-.589 1.034 0 .03.003.06.005.09v5.176H16.72v-5.234l.002-.032z"/>
</g>
</svg>
<view id="search-ad" viewBox="38 0 27 19"/>
<svg width="27" height="19" viewBox="-1 -1 27 19" x="38" xmlns="http://www.w3.org/2000/svg">
<g transform="translate(1 1)" stroke="#FFF" fill="none" fill-rule="evenodd">
<path d="M9 10H0V0h19v4"/>
<circle cx="16" cy="8" r="5"/>
<path d="M20 12.5l2.828 2.828" stroke-linecap="square"/>
</g>
</svg>
<view id="sme" viewBox="0 0 38 38"/>
<svg width="38" height="38" viewBox="-1 -1 38 38" xmlns="http://www.w3.org/2000/svg">
<g transform="translate(4 4)" fill="none" fill-rule="evenodd">
<path stroke="#FFF" d="M12.578 2.587c.076.268.209.5.378.687.302.332.725.526 1.194.526a1.648 1.648 0 001.557-1.101c2.54.342 4.81 1.533 6.524 3.28a11.407 11.407 0 013.193 6.69 1.648 1.648 0 00-.037 2.944 11.47 11.47 0 01-3.364 6.626 11.466 11.466 0 01-6.236 3.123c.013-.668-.172-1.08-.47-1.379a1.648 1.648 0 00-2.334 0 1.648 1.648 0 00-.483 1.167c-2.454-.062-4.682-1.166-6.405-2.798a11.468 11.468 0 01-3.468-6.637c.255-.078.477-.21.658-.378.323-.3.515-.721.515-1.187a1.648 1.648 0 00-1.114-1.561 11.144 11.144 0 013.186-6.711 11.387 11.387 0 016.706-3.291z"/>
<path d="M19.5 8.5v11h-11v-11h11zm-6.374 2.982H11.25v5.036h1.85V13.91l1.774 2.607h1.876v-5.035h-1.849v2.606l-1.775-2.606z" fill="#FFF"/>
<circle cx="14.131" cy="2.131" r="1.631" stroke="#FFF"/>
<circle cx="14.131" cy="25.131" r="1.631" stroke="#FFF"/>
<circle cx="26.131" cy="14.131" r="1.631" stroke="#FFF"/>
<circle cx="2.131" cy="14.131" r="1.631" stroke="#FFF"/>
</g></svg></svg>