<?xml version="1.0" encoding="utf-8"?><svg width="40" height="22" viewBox="0 0 40 22" xmlns="http://www.w3.org/2000/svg" xmlns:xlink="http://www.w3.org/1999/xlink"><view id="tip" viewBox="0 0 40 22"/><svg width="40" height="22" fill="none" viewBox="-1 -1 40 22" xmlns="http://www.w3.org/2000/svg"><rect width="38" height="20" rx="10" fill="#03C75A"/><path d="M8 6.743V5h8.849v1.743H13.55V15h-2.252V6.743H8zM20.299 5v10H18.02V5h2.278zm1.589 10V5h4.25c.818 0 1.514.145 2.09.435.574.286 1.013.685 1.314 1.196.305.508.458 1.094.458 1.758 0 .664-.154 1.25-.463 1.758-.309.507-.756.903-1.341 1.186-.583.283-1.288.425-2.115.425h-2.71v-1.694h2.341c.439 0 .8-.07 1.084-.21a1.45 1.45 0 00.642-.591c.144-.254.216-.546.216-.874 0-.332-.072-.622-.216-.87a1.396 1.396 0 00-.642-.58c-.287-.14-.652-.21-1.094-.21h-1.536V15h-2.278z" fill="#fff"/></svg></svg>