<?xml version="1.0" encoding="utf-8"?><svg width="228" height="227" viewBox="0 0 228 227" xmlns="http://www.w3.org/2000/svg" xmlns:xlink="http://www.w3.org/1999/xlink"><svg width="18" height="14" viewBox="-4 -4 18 14" id="arrow_down_10x6_gray" x="149" y="128" xmlns="http://www.w3.org/2000/svg"><path d="m.5.5 4.469 4.523L9.492.5" stroke="#999" fill="none" fill-rule="evenodd"/></svg><svg width="18" height="17" fill="none" viewBox="-4 -4 18 17" id="arrow_down_10x9_black" x="17" y="193" xmlns="http://www.w3.org/2000/svg"><path d="m1 2.5 4 4 4-4" stroke="#000" stroke-width="1.5"/></svg><svg width="18" height="17" fill="none" viewBox="-4 -4 18 17" id="arrow_down_10x9_white" x="35" y="193" xmlns="http://www.w3.org/2000/svg"><path d="m1 2.5 4 4 4-4" stroke="#fff" stroke-width="1.5"/></svg><svg width="19" height="19" viewBox="-4 -4 19 19" id="arrow_down_11x11_white" x="70" y="172" xmlns="http://www.w3.org/2000/svg"><defs><filter id="ada" width="105.9%" height="124.3%" x="-3%" y="-6.1%" filterUnits="objectBoundingBox"><feOffset dy="2" in="SourceAlpha" result="shadowOffsetOuter1"/><feGaussianBlur in="shadowOffsetOuter1" result="shadowBlurOuter1" stdDeviation="1"/><feComposite in="shadowBlurOuter1" in2="SourceAlpha" operator="out" result="shadowBlurOuter1"/><feColorMatrix in="shadowBlurOuter1" values="0 0 0 0 0 0 0 0 0 0 0 0 0 0 0 0 0 0 0.06 0"/></filter><path id="adb" d="M72.364 27 67.5 32.864 62.636 27H0V0h135v27z"/></defs><g fill="none" fill-rule="evenodd" transform="translate(-62 -26)"><use fill="#000" filter="url(#ada)" xlink:href="#adb"/><path fill="#FFF" stroke="#000" stroke-linejoin="square" stroke-opacity=".1" d="M134.5 26.5V.5H.5v26h62.37l4.63 5.58 4.63-5.58h62.37z"/></g></svg><svg width="19" height="14" viewBox="-4 -4 19 14" id="arrow_down_11x6_black" x="64" y="155" xmlns="http://www.w3.org/2000/svg"><path fill-rule="evenodd" d="M0 .588.579 0 5.5 4.997 10.421 0 11 .588l-5.21 5.29a.404.404 0 0 1-.58 0L0 .588z"/></svg><svg width="19" height="14" viewBox="-4 -4 19 14" id="arrow_down_11x6_white" x="83" y="155" xmlns="http://www.w3.org/2000/svg"><path fill="#FFF" fill-rule="evenodd" d="M11 0 5.5 6 0 0z"/></svg><svg width="19" height="15" viewBox="-4 -4 19 15" id="arrow_down_11x7_gray" x="89" y="172" xmlns="http://www.w3.org/2000/svg"><path fill="#979797" d="M10.116.18a.5.5 0 1 1 .768.64l-5 6a.5.5 0 0 1-.768 0l-5-6A.5.5 0 0 1 .884.18L5.5 5.719l4.616-5.54z"/></svg><svg width="20" height="16" viewBox="-4 -4 20 16" id="arrow_down_12x8_black" x="44" y="155" xmlns="http://www.w3.org/2000/svg"><g fill="none" fill-rule="evenodd"><path d="M12 0v8H0V0z"/><path stroke="#000" stroke-width="1.5" d="M11 1 6.01 6 1 1.06"/></g></svg><svg width="22" height="16" viewBox="-4 -4 22 16" id="arrow_down_14x8_gray" x="127" y="128" xmlns="http://www.w3.org/2000/svg"><path fill="#ACB2BC" fill-rule="evenodd" d="M13 2v1h-1v1h-1v1h-1v1H9v1H8v1H6V7H5V6H4V5H3V4H2V3H1V2H0V0h1v1h1v1h1v1h1v1h1v1h1v1h2V5h1V4h1V3h1V2h1V1h1V0h1v2h-1z"/></svg><svg width="22" height="17" viewBox="-4 -4 22 17" id="arrow_down_14x9_darkgray" y="155" xmlns="http://www.w3.org/2000/svg"><path d="M13 1 7.012 7 1 1.072" stroke="#666" stroke-width="1.8" fill="none" fill-rule="evenodd"/></svg><svg width="23" height="16" viewBox="-4 -4 23 16" id="arrow_down_15x8_black" x="81" y="128" xmlns="http://www.w3.org/2000/svg"><path fill-rule="evenodd" d="M7.5 8a.502.502 0 0 1-.354-.146l-7-7A.502.502 0 0 1 .854.146L7.5 6.793 14.146.146a.502.502 0 0 1 .708.708l-7 7A.502.502 0 0 1 7.5 8"/></svg><svg width="27" height="18" viewBox="-4 -4 27 18" id="arrow_down_19x10_black" x="131" y="109" xmlns="http://www.w3.org/2000/svg"><path fill="none" stroke="#000" d="m18.5.5-9 9-9-9"/></svg><svg width="13" height="11" viewBox="-4 -4 13 11" id="arrow_down_5x3_gray" x="202" y="180" xmlns="http://www.w3.org/2000/svg"><path opacity=".2" fill-rule="evenodd" d="M0 0h1v1H0V0zm1 0h1v1H1V0zm1 0h1v1H2V0zM1 1h1v1H1V1zm1 0h1v1H2V1zm0 1h1v1H2V2zm1-1h1v1H3V1zm0-1h1v1H3V0zm1 0h1v1H4V0z"/></svg><svg width="13" height="11" viewBox="-4 -4 13 11" id="arrow_down_5x3_white" x="172" y="155" xmlns="http://www.w3.org/2000/svg"><path fill="#FFF" fill-rule="evenodd" d="M0 0h1v1H0V0zm1 0h1v1H1V0zm1 0h1v1H2V0zM1 1h1v1H1V1zm1 0h1v1H2V1zm0 1h1v1H2V2zm1-1h1v1H3V1zm0-1h1v1H3V0zm1 0h1v1H4V0z"/></svg><svg width="15" height="12" viewBox="-4 -4 15 12" id="arrow_down_7x4_black" x="178" y="172" xmlns="http://www.w3.org/2000/svg"><path d="M6.143 0 7 1 3.5 4 0 1l.857-1L3.5 2.265z"/></svg><svg width="15" height="12" viewBox="-4 -4 15 12" id="arrow_down_7x4_gray" x="134" y="193" xmlns="http://www.w3.org/2000/svg"><path opacity=".3" d="M6.143 0 7 1 3.5 4 0 1l.857-1L3.5 2.265z"/></svg><svg width="15" height="12" viewBox="-4 -4 15 12" id="arrow_down_7x4_white" x="149" y="193" xmlns="http://www.w3.org/2000/svg"><path fill="#fff" d="M6.143 0 7 1 3.5 4 0 1l.857-1L3.5 2.265z"/></svg><svg width="17" height="13" viewBox="-4 -4 17 13" id="arrow_down_9x5_gray" x="121" y="155" xmlns="http://www.w3.org/2000/svg"><path fill="#555" fill-rule="evenodd" d="M0 0h9L4.5 5z"/></svg><svg width="17" height="14" fill="none" viewBox="-4 -4 17 14" id="arrow_down_9x6_gray" x="127" y="172" xmlns="http://www.w3.org/2000/svg"><path opacity=".5" d="M4.5 4.265 8.366.5 9 1.117 4.5 5.5 0 1.117.634.5 4.5 4.265z" fill="#666"/></svg><svg width="17" height="14" viewBox="-4 -4 17 14" id="arrow_down_mask_9x6_white" x="144" y="172" xmlns="http://www.w3.org/2000/svg"><path fill="#FFF" d="M9 0v6H0V0h9zM7.143 1 4.5 3.265 1.857 1 1 2l3.5 3L8 2l-.857-1z"/></svg><svg width="18" height="29" viewBox="-4 -4 18 29" id="arrow_left_10x21_gray" x="131" y="36" xmlns="http://www.w3.org/2000/svg"><path fill="#555" fill-rule="evenodd" d="m9.412 21 .589-.579L1.003 10.5 10.001.579 9.412 0 .122 10.21a.404.404 0 0 0 0 .58L9.412 21z"/></svg><svg width="19" height="26" viewBox="-4 -4 19 26" id="arrow_left_11x18_black" x="109" y="90" xmlns="http://www.w3.org/2000/svg"><path fill="none" stroke="#333" stroke-width="2" d="M10 17 2 9l8-8"/></svg><svg width="19" height="26" viewBox="-4 -4 19 26" id="arrow_left_11x18_white" x="167" xmlns="http://www.w3.org/2000/svg"><path fill="none" stroke="#fff" stroke-width="2" d="M10 17 2 9l8-8"/></svg><svg width="21" height="21" fill="none" viewBox="-4 -4 21 21" id="arrow_left_13x13_black" y="172" xmlns="http://www.w3.org/2000/svg"><path d="M8 11 4 6.5 8 2" stroke="#000" stroke-width="1.5"/></svg><svg width="24" height="36" viewBox="-4 -4 24 36" id="arrow_left_16x28_black" x="25" y="90" xmlns="http://www.w3.org/2000/svg"><path d="M14.652 0 16 1.494 2.911 14 16 26.506 14.652 28 0 14z"/></svg><svg width="24" height="36" viewBox="-4 -4 24 36" id="arrow_left_16x28_white" x="49" y="90" xmlns="http://www.w3.org/2000/svg"><path fill="#FFF" d="M14.652 0 16 1.494 2.911 14 16 26.506 14.652 28 0 14z"/></svg><svg width="31" height="41" viewBox="-4 -4 31 41" id="arrow_left_23x33_white" x="100" xmlns="http://www.w3.org/2000/svg"><g fill="none" fill-rule="evenodd"><path fill="#000" d="M15.978 0v1.001h-1V2h-1.001v1h-1v1h-1v1h-1v.999h-1v1h-1v1h-1V9h-1v1h-1v1h-1v1h-1v1h-1v1h-1v.999h-1v1h-1v1h1v1h1V19h1v1h1v1h1v1h1v1h1v.999h1v1h1v1h1v1h1V28h1v1h1v1h1v1h1v1.007h1V33h7v-3h-1v-1h-1v-1h-1v-1.001h-1v-1h-1v-1h-1v-1h-1V23h-1v-1h-1v-1h-1v-1h-1v-1h-1v-1.001h-1v-1h-1v-1h1v-1h1V14h1v-1h1v-1h1v-1h1v-1h1V9h1V7.999h1v-1h1v-1h1V5h1V4h1V3h1V0z" opacity=".1"/><path fill="#FFF" d="M16.978 1v1h-1.001v1h-1v1h-1v1h-1v.999h-1v1h-1v1h-1V9h-1v1h-1v1h-1v1h-1v1h-1v1h-1v.999h-1v1h-1v1h1v1h1V19h1v1h1v1h1v1h1v1h1v.999h1v1h1v1h1v1h1V28h1v1h1v1h1v1h1v1h5v-1h-1v-1h-1v-1h-1v-1h-1v-1.001h-1v-1h-1v-1h-1v-1h-1V23h-1v-1h-1v-1h-1v-1h-1v-1h-1v-1.001h-1v-1h-1v-1h1v-1h1V14h1v-1h1v-1h1v-1h1v-1h1V9h1V7.999h1v-1h1v-1h1V5h1V4h1V3h1V2h1V1z"/></g></svg><svg width="36" height="36" fill="none" viewBox="-4 -4 36 36" id="arrow_left_28x28_black" x="73" y="90" xmlns="http://www.w3.org/2000/svg"><path d="M12.078 5 3 14.078l9.078 9.078m-8.6-9.078h22" stroke="#000" stroke-width="1.5" stroke-linecap="round" stroke-linejoin="round"/></svg><svg width="36" height="36" fill="none" viewBox="-4 -4 36 36" id="arrow_left_28x28_white" x="131" xmlns="http://www.w3.org/2000/svg"><path d="M12.078 5 3 14.078l9.078 9.078m-8.6-9.078h22" stroke="#fff" stroke-width="1.5" stroke-linecap="round" stroke-linejoin="round"/></svg><svg width="50" height="90" viewBox="-4 -4 50 90" id="arrow_left_42x82_white" xmlns="http://www.w3.org/2000/svg"><defs><filter id="bda" width="107.5%" height="103.7%" x="-3.7%" y="-1.9%" filterUnits="objectBoundingBox"><feOffset in="SourceAlpha" result="shadowOffsetOuter1"/><feGaussianBlur in="shadowOffsetOuter1" result="shadowBlurOuter1" stdDeviation=".5"/><feColorMatrix in="shadowBlurOuter1" values="0 0 0 0 0 0 0 0 0 0 0 0 0 0 0 0 0 0 0.2 0"/></filter><path id="bdb" d="m6.446 270 34.03 36.696a1.948 1.948 0 0 1-.136 2.79 2.043 2.043 0 0 1-2.846-.133L1 270l36.494-39.353a2.043 2.043 0 0 1 2.846-.133c.824.734.885 1.983.136 2.79L6.446 270z"/></defs><g fill="none" transform="translate(0 -229)"><use fill="#000" filter="url(#bda)" xlink:href="#bdb"/><use fill="#FFF" fill-rule="evenodd" xlink:href="#bdb"/></g></svg><svg width="12" height="16" viewBox="-4 -4 12 16" id="arrow_left_4x8_gray" x="71" y="193" xmlns="http://www.w3.org/2000/svg"><path fill="#A4A4A4" fill-rule="evenodd" d="M3.608 8 4 7.58.67 4 4 .42 3.608 0 .081 3.79a.313.313 0 0 0 0 .42L3.608 8z"/></svg><svg width="14" height="19" viewBox="-4 -4 14 19" id="arrow_left_6x11_white" x="202" xmlns="http://www.w3.org/2000/svg"><path fill="none" stroke="#FFF" d="M5 1 1 5.5 5 10"/></svg><svg width="15" height="20" viewBox="-4 -4 15 20" id="arrow_left_7x12_darkgray" x="186" y="22" xmlns="http://www.w3.org/2000/svg"><path d="M6.723.54a.316.316 0 0 0-.446-.448L.592 5.777a.317.317 0 0 0 0 .446l5.685 5.685a.316.316 0 1 0 .446-.447L1.263 6 6.722.54z" opacity=".6"/></svg><svg width="16" height="22" viewBox="-4 -4 16 22" id="arrow_left_8x14_black" x="167" y="130" xmlns="http://www.w3.org/2000/svg"><path d="M7.744 12.652a.763.763 0 0 1 .042 1.1.816.816 0 0 1-1.13.04l-6.4-5.778a.763.763 0 0 1-.04-1.1l6.4-6.667A.816.816 0 0 1 7.745.21c.323.293.34.785.039 1.1L1.932 7.404l5.812 5.247z"/></svg><svg width="17" height="26" viewBox="-4 -4 17 26" id="arrow_left_9x18_black" x="167" y="26" xmlns="http://www.w3.org/2000/svg"><path fill="#000" d="M9 18v-2.576L2.206 9 9 2.402V0L.468 8.104a1.498 1.498 0 0 0 0 2.175L9 18z" fill-rule="evenodd"/></svg><svg width="27" height="27" viewBox="-4 -4 27 27" id="arrow_left_square_19x19_gray" y="128" xmlns="http://www.w3.org/2000/svg"><defs><path id="bja" d="M0 0h19v19H0z"/></defs><g fill="none" fill-rule="evenodd"><g transform="matrix(-1 0 0 1 19 0)"><use fill="#FFF" xlink:href="#bja"/><path stroke="#E0E0E0" d="M.5.5h18v18H.5z"/></g><path fill="#777" d="M11.998 6v.997h-.999v1.01h-.997v1L9.004 9v1.006h.999v1.002h.996v1.003h1V13h-1.997v-.99h-.998L9 11.007H8l-.003-1H7v-1h1.001l-.003-1H9v-1.01h1.002V6z"/></g></svg><svg width="18" height="29" viewBox="-4 -4 18 29" id="arrow_right_10x21_gray" x="149" y="36" xmlns="http://www.w3.org/2000/svg"><path fill="#555" fill-rule="evenodd" d="M.588 21 0 20.421 8.997 10.5 0 .579.588 0l9.29 10.21a.404.404 0 0 1 0 .58L.588 21z"/></svg><svg width="19" height="26" viewBox="-4 -4 19 26" id="arrow_right_11x18_black" x="167" y="52" xmlns="http://www.w3.org/2000/svg"><path fill="none" stroke="#333" stroke-width="2" d="m1 17 8-8-8-8"/></svg><svg width="19" height="26" viewBox="-4 -4 19 26" id="arrow_right_11x18_white" x="167" y="78" xmlns="http://www.w3.org/2000/svg"><path fill="none" stroke="#fff" stroke-width="2" d="m1 17 8-8-8-8"/></svg><svg width="25" height="38" viewBox="-4 -4 25 38" id="arrow_right_17x30_white" y="90" xmlns="http://www.w3.org/2000/svg"><path fill="none" stroke="#FFF" stroke-linecap="round" stroke-linejoin="round" stroke-width="2" d="m2 29 14-14.002L2 1"/></svg><svg width="29" height="26" fill="none" viewBox="-4 -4 29 26" id="arrow_right_21x18_black" x="131" y="65" xmlns="http://www.w3.org/2000/svg"><path d="M11.177 1.001 19 8.81l-7.73 7.84M19 8.825H0" stroke="#444" stroke-width="1.5"/></svg><svg width="31" height="41" viewBox="-4 -4 31 41" id="arrow_right_23x33_white" x="100" y="41" xmlns="http://www.w3.org/2000/svg"><g fill="none" fill-rule="evenodd"><path fill="#000" d="M7.022 0v1.001h1V2h1.001v1h1v1h1v1h1v.999h1v1h1v1h1V9h1v1h1v1h1v1h1v1h1v1h1v.999h1v1h1v1h-1v1h-1V19h-1v1h-1v1h-1v1h-1v1h-1v.999h-1v1h-1v1h-1v1h-1V28h-1v1h-1v1h-1v1h-1v1.007h-1V33h-7v-3h1v-1h1v-1h1v-1.001h1v-1h1v-1h1v-1h1V23h1v-1h1v-1h1v-1h1v-1h1v-1.001h1v-1h1v-1h-1v-1h-1V14h-1v-1h-1v-1h-1v-1h-1v-1h-1V9h-1V7.999h-1v-1h-1v-1h-1V5h-1V4h-1V3h-1V0z" opacity=".1"/><path fill="#FFF" d="M6.022 1v1h1.001v1h1v1h1v1h1v.999h1v1h1v1h1V9h1v1h1v1h1v1h1v1h1v1h1v.999h1v1h1v1h-1v1h-1V19h-1v1h-1v1h-1v1h-1v1h-1v.999h-1v1h-1v1h-1v1h-1V28h-1v1h-1v1h-1v1h-1v1h-5v-1h1v-1h1v-1h1v-1h1v-1.001h1v-1h1v-1h1v-1h1V23h1v-1h1v-1h1v-1h1v-1h1v-1.001h1v-1h1v-1h-1v-1h-1V14h-1v-1h-1v-1h-1v-1h-1v-1h-1V9h-1V7.999h-1v-1h-1v-1h-1V5h-1V4h-1V3h-1V2h-1V1z"/></g></svg><svg width="50" height="90" viewBox="-4 -4 50 90" id="arrow_right_42x82_white" x="50" xmlns="http://www.w3.org/2000/svg"><defs><filter id="bqa" width="107.5%" height="103.7%" x="-3.7%" y="-1.9%" filterUnits="objectBoundingBox"><feOffset in="SourceAlpha" result="shadowOffsetOuter1"/><feGaussianBlur in="shadowOffsetOuter1" result="shadowBlurOuter1" stdDeviation=".5"/><feColorMatrix in="shadowBlurOuter1" values="0 0 0 0 0 0 0 0 0 0 0 0 0 0 0 0 0 0 0.2 0"/></filter><path id="bqb" d="m1268.446 270 34.03 36.696a1.948 1.948 0 0 1-.136 2.79 2.043 2.043 0 0 1-2.846-.133L1263 270l36.494-39.353a2.043 2.043 0 0 1 2.846-.133c.824.734.885 1.983.136 2.79L1268.446 270z"/></defs><g fill="none" transform="matrix(-1 0 0 1 1304 -229)"><use fill="#000" filter="url(#bqa)" xlink:href="#bqb"/><use fill="#FFF" fill-rule="evenodd" xlink:href="#bqb"/></g></svg><svg width="12" height="14" viewBox="-4 -4 12 14" id="arrow_right_4x10_gray" x="216" y="15" xmlns="http://www.w3.org/2000/svg"><path fill="#D8D8D8" fill-rule="evenodd" d="M0 0v6l4-3z"/></svg><svg width="12" height="15" viewBox="-4 -4 12 15" id="arrow_right_4x7_darkgray" x="216" xmlns="http://www.w3.org/2000/svg"><path fill="#777" fill-rule="evenodd" d="M.011.55.705.009l3.293 3.496L.705 7.001.011 6.46l2.783-2.955L.011.55z"/></svg><svg width="12" height="16" viewBox="-4 -4 12 16" id="arrow_right_4x8_gray" x="83" y="193" xmlns="http://www.w3.org/2000/svg"><path fill="#A4A4A4" fill-rule="evenodd" d="M.392 8 0 7.58 3.332 4 0 .42.392 0l3.527 3.79a.313.313 0 0 1 0 .42L.392 8z"/></svg><svg width="13" height="15" viewBox="-4 -4 13 15" id="arrow_right_5x7_black" y="212" xmlns="http://www.w3.org/2000/svg"><path d="M0 .68.647 0 5 3.5.647 7 0 6.32 3.507 3.5z"/></svg><svg width="13" height="16" viewBox="-4 -4 13 16" id="arrow_right_5x8_blue" x="95" y="193" xmlns="http://www.w3.org/2000/svg"><path fill="#4C91E2" d="M0 .941.584 0 5 4 .584 8 0 7.059 3.377 4z"/></svg><svg width="13" height="16" viewBox="-4 -4 13 16" id="arrow_right_5x8_lightgray" x="108" y="193" xmlns="http://www.w3.org/2000/svg"><path fill="#CCC" fill-rule="evenodd" d="M.734 8 0 7.33 3.746 4 0 .67.734 0l4.114 3.665a.445.445 0 0 1 0 .67L.734 8z"/></svg><svg width="13" height="16" viewBox="-4 -4 13 16" id="arrow_right_5x8_white" x="121" y="193" xmlns="http://www.w3.org/2000/svg"><path fill="#fff" fill-rule="evenodd" d="M.838 0 0 .805 3.323 4 0 7.195.838 8 5 4z"/></svg><svg width="13" height="17" fill="none" viewBox="-4 -4 13 17" id="arrow_right_5x9_black" x="202" y="129" xmlns="http://www.w3.org/2000/svg"><path fill="#333" d="M.734 8.5 0 7.83 3.746 4.5 0 1.17.734.5l4.114 3.665a.445.445 0 0 1 0 .67L.734 8.5z"/></svg><svg width="13" height="17" viewBox="-4 -4 13 17" id="arrow_right_5x9_gray" x="202" y="146" xmlns="http://www.w3.org/2000/svg"><path fill="#ADADAD" fill-rule="evenodd" d="M.715 0 0 .75 3.572 4.5 0 8.25.715 9l3.571-3.75L5 4.5l-.714-.75z"/></svg><svg width="13" height="17" viewBox="-4 -4 13 17" id="arrow_right_5x9_white" x="202" y="163" xmlns="http://www.w3.org/2000/svg"><path fill="#FFF" fill-rule="evenodd" d="M0 0h1v1H0V0zm1 1h1v1H1V1zm1 1h1v1H2V2zm1 1h1v1H3V3zm1 1h1v1H4V4zM3 5h1v1H3V5zM2 6h1v1H2V6zM1 7h1v1H1V7zM0 8h1v1H0V8z"/></svg><svg width="14" height="18" fill="none" viewBox="-4 -4 14 18" id="arrow_right_6x10_black" x="202" y="57" xmlns="http://www.w3.org/2000/svg"><path d="M.734 10 0 9.33 4.746 5 0 .67.734 0l5.114 4.665a.445.445 0 0 1 0 .67L.734 10z" fill="#333"/></svg><svg width="14" height="18" viewBox="-4 -4 14 18" id="arrow_right_6x10_gray" x="202" y="75" xmlns="http://www.w3.org/2000/svg"><path fill="#CCC" fill-rule="evenodd" d="M.734 10 0 9.33 4.746 5 0 .67.734 0l5.114 4.665a.444.444 0 0 1 0 .67L.734 10z"/></svg><svg width="14" height="18" viewBox="-4 -4 14 18" id="arrow_right_6x10_white" x="202" y="93" xmlns="http://www.w3.org/2000/svg"><path fill="#FFF" fill-rule="evenodd" d="M.734 10 0 9.33 4.746 5 0 .67.734 0l5.114 4.665a.444.444 0 0 1 0 .67L.734 10z"/></svg><svg width="14" height="18" viewBox="-4 -4 14 18" id="arrow_right_6x10x2_white" x="202" y="111" xmlns="http://www.w3.org/2000/svg"><path d="m1 1 4 4-4 4" stroke="#FFF" stroke-width="1.5" fill="none"/></svg><svg width="14" height="19" viewBox="-4 -4 14 19" id="arrow_right_6x11_black" x="202" y="19" xmlns="http://www.w3.org/2000/svg"><path fill-rule="evenodd" d="M.588 11 0 10.421 4.997 5.5 0 .579.588 0l5.29 5.21c.16.155.164.411.009.571l-.009.009L.588 11z"/></svg><svg width="14" height="19" viewBox="-4 -4 14 19" id="arrow_right_6x11_white" x="202" y="38" xmlns="http://www.w3.org/2000/svg"><path fill="none" stroke="#FFF" d="m1 1 4 4.5L1 10"/></svg><svg width="14" height="20" viewBox="-4 -4 14 20" id="arrow_right_6x12_black" x="186" y="42" xmlns="http://www.w3.org/2000/svg"><path fill-rule="evenodd" d="M.146 11.84a.583.583 0 0 1 0-.772L4.793 6 .146.932a.583.583 0 0 1 0-.772.472.472 0 0 1 .708 0l5 5.454a.583.583 0 0 1 0 .772l-5 5.455A.482.482 0 0 1 .5 12a.482.482 0 0 1-.354-.16z"/></svg><svg width="14" height="20" viewBox="-4 -4 14 20" id="arrow_right_6x12_white" x="186" y="62" xmlns="http://www.w3.org/2000/svg"><path fill="#FFF" fill-rule="evenodd" d="M.146 11.84a.583.583 0 0 1 0-.772L4.793 6 .146.932a.583.583 0 0 1 0-.772.472.472 0 0 1 .708 0l5 5.454a.583.583 0 0 1 0 .772l-5 5.455A.482.482 0 0 1 .5 12a.482.482 0 0 1-.354-.16z"/></svg><svg width="15" height="20" viewBox="-4 -4 15 20" id="arrow_right_7x12_darkgray" x="186" y="82" xmlns="http://www.w3.org/2000/svg"><path d="M.272.54a.321.321 0 0 1 0-.449.32.32 0 0 1 .448.001l5.684 5.685a.314.314 0 0 1 0 .446L.72 11.908a.317.317 0 0 1-.447-.447L5.733 6 .273.54z" opacity=".6"/></svg><svg width="15" height="20" viewBox="-4 -4 15 20" id="arrow_right_7x12_gray" x="186" y="102" xmlns="http://www.w3.org/2000/svg"><path fill="rgba(255, 255, 255, 0.7)" d="M.147.787a.435.435 0 0 1 0-.652.534.534 0 0 1 .71 0l5.996 5.508c.195.18.196.47.002.65l-5.997 5.57a.534.534 0 0 1-.71.004.435.435 0 0 1-.003-.652L5.79 5.971.147.787z" opacity=".7"/></svg><svg width="15" height="20" viewBox="-4 -4 15 20" id="arrow_right_7x12_white" x="186" y="122" xmlns="http://www.w3.org/2000/svg"><path fill="#FFF" d="M.147.787a.435.435 0 0 1 0-.652.534.534 0 0 1 .71 0l5.996 5.508c.195.18.196.47.002.65l-5.997 5.57a.534.534 0 0 1-.71.004.435.435 0 0 1-.003-.652L5.79 5.971.147.787z" opacity=".7"/></svg><svg width="16" height="20" viewBox="-4 -4 16 20" id="arrow_right_8x12_black" x="186" y="142" xmlns="http://www.w3.org/2000/svg"><g fill="none" fill-rule="evenodd"><path d="M0 0h8v12H0z"/><path stroke="#000" stroke-width="1.5" d="m1 1 5 4.99L1.06 11"/></g></svg><svg width="16" height="22" viewBox="-4 -4 16 22" id="arrow_right_8x14_black" x="186" xmlns="http://www.w3.org/2000/svg"><path d="M.256 12.652a.763.763 0 0 0-.042 1.1c.3.314.807.332 1.13.04l6.4-5.778a.763.763 0 0 0 .04-1.1L1.385.247A.816.816 0 0 0 .255.21a.763.763 0 0 0-.039 1.1l5.853 6.096-5.812 5.247z"/></svg><svg width="17" height="21" fill="none" viewBox="-4 -4 17 21" id="arrow_right_9x13_green" x="21" y="172" xmlns="http://www.w3.org/2000/svg"><path opacity=".6" d="M1.444 1.444 7.222 6.5l-5.778 5.056" stroke="#0BBD56" stroke-width="1.5" stroke-linecap="round" stroke-linejoin="round"/></svg><svg width="17" height="26" viewBox="-4 -4 17 26" id="arrow_right_9x18_black" x="167" y="104" xmlns="http://www.w3.org/2000/svg"><path fill-rule="evenodd" d="M0 18v-2.576L6.794 9 0 2.402V0l8.532 8.104a1.498 1.498 0 0 1 0 2.175L0 18z"/></svg><svg width="16" height="20" viewBox="-4 -4 16 20" id="arrow_right_mask_8x12_gray" x="38" y="172" xmlns="http://www.w3.org/2000/svg"><path fill="#f7f8f9" fill-rule="evenodd" d="M8 0v12H0V0h8zM2.006 1 1 2.007 4.988 6 1 9.993 2.006 11 7 6 2.006 1z"/></svg><svg width="16" height="20" viewBox="-4 -4 16 20" id="arrow_right_mask_8x12_white" x="54" y="172" xmlns="http://www.w3.org/2000/svg"><path fill="#FFF" fill-rule="evenodd" d="M8 0v12H0V0h8zM2.006 1 1 2.007 4.988 6 1 9.993 2.006 11 7 6 2.006 1z"/></svg><svg width="17" height="19" fill="none" viewBox="-4 -4 17 19" id="arrow_right_mask_9x11_white" y="193" xmlns="http://www.w3.org/2000/svg"><path fill-rule="evenodd" clip-rule="evenodd" d="M9 0H0v11h9V0zM2.646 8.258a.5.5 0 1 0 .708.707l3.36-3.361a.5.5 0 0 0 0-.708l-3.36-3.36a.5.5 0 1 0-.708.706L5.654 5.25 2.646 8.258z" fill="#fff"/></svg><svg width="27" height="27" viewBox="-4 -4 27 27" id="arrow_right_square_19x19_gray" x="27" y="128" xmlns="http://www.w3.org/2000/svg"><defs><path id="cta" d="M0 0h19v19H0z"/></defs><g fill="none" fill-rule="evenodd"><use fill="#FFF" xlink:href="#cta"/><path stroke="#E0E0E0" d="M.5.5h18v18H.5z"/><path fill="#777" d="M7.002 6v.997H8v1.01h.997v1L9.994 9v1.006h-.998v1.002H8v1.003H7V13h1.998v-.99h.997L10 11.007h.998l.004-1h.997v-1h-1l.003-1H10v-1.01H8.998V6z"/></g></svg><svg width="18" height="17" fill="none" viewBox="-4 -4 18 17" id="arrow_up_10x9_white" x="53" y="193" xmlns="http://www.w3.org/2000/svg"><path d="m9 6.5-4-4-4 4" stroke="#fff" stroke-width="1.5"/></svg><svg width="19" height="14" viewBox="-4 -4 19 14" id="arrow_up_11x6_black" x="102" y="155" xmlns="http://www.w3.org/2000/svg"><path fill-rule="evenodd" d="M5.25 0a.325.325 0 0 0-.24.107L0 5.487.479 6 5.25.877 10.022 6l.478-.514L5.49.106A.325.325 0 0 0 5.25 0"/></svg><svg width="19" height="15" viewBox="-4 -4 19 15" id="arrow_up_11x7_gray" x="108" y="172" xmlns="http://www.w3.org/2000/svg"><path fill="#979797" d="M10.116 6.82a.5.5 0 1 0 .768-.64l-5-6a.5.5 0 0 0-.768 0l-5 6a.5.5 0 0 0 .768.64L5.5 1.281l4.616 5.54z"/></svg><svg width="22" height="16" viewBox="-4 -4 22 16" id="arrow_up_14x8_black" x="22" y="155" xmlns="http://www.w3.org/2000/svg"><path fill="#010101" fill-rule="evenodd" d="M13 6V5h-1V4h-1V3h-1V2H9V1H8V0H6v1H5v1H4v1H3v1H2v1H1v1H0v2h1V7h1V6h1V5h1V4h1V3h1V2h2v1h1v1h1v1h1v1h1v1h1v1h1V6h-1z"/></svg><svg width="23" height="16" viewBox="-4 -4 23 16" id="arrow_up_15x8_black" x="104" y="128" xmlns="http://www.w3.org/2000/svg"><path fill="#292b2c" fill-rule="evenodd" d="M7.5 0a.502.502 0 0 0-.354.146l-7 7a.502.502 0 0 0 .708.708L7.5 1.207l6.646 6.647a.502.502 0 0 0 .708-.708l-7-7A.502.502 0 0 0 7.5 0"/></svg><svg width="27" height="18" viewBox="-4 -4 27 18" id="arrow_up_19x10_black" x="54" y="128" xmlns="http://www.w3.org/2000/svg"><path fill="none" stroke="#000" d="m18.5 9.5-9-9-9 9"/></svg><svg width="28" height="18" viewBox="-4 -4 28 18" id="arrow_up_20x10_black" x="131" y="91" xmlns="http://www.w3.org/2000/svg"><path fill="#040404" fill-rule="evenodd" d="M10 0 0 9.36l.684.64L10 1.279 19.317 10l.684-.64z"/></svg><svg width="17" height="13" viewBox="-4 -4 17 13" id="arrow_up_9x5_darkgray" x="138" y="155" xmlns="http://www.w3.org/2000/svg"><g fill="#FFF" fill-rule="evenodd"><path stroke="#3D3D50" d="M1.5 3.5h1v-1h1v-1h1v-.25.25h1v1h1v1h1v1h.25H0l.5.5V4l-.5.5h1.5v-1zm6.25 1h.75-.75z"/><path d="M2 4h5v1H2z"/></g></svg><svg width="17" height="13" viewBox="-4 -4 17 13" id="arrow_up_9x5_gray" x="155" y="155" xmlns="http://www.w3.org/2000/svg"><path fill="#555" fill-rule="evenodd" d="M0 5h9L4.5 0z"/></svg><svg width="17" height="14" fill="none" viewBox="-4 -4 17 14" id="arrow_up_9x6_white" x="161" y="172" xmlns="http://www.w3.org/2000/svg"><path d="M4.5 1.735.634 5.5 0 4.883 4.5.5 9 4.883l-.634.617L4.5 1.735z" fill="#fff"/></svg></svg>