<svg width="64" height="13" viewBox="0 0 64 13" fill="none" xmlns="http://www.w3.org/2000/svg">
    <path fill-rule="evenodd" clip-rule="evenodd" d="m18.63.5-4.74 11.936h4.03l.572-1.58h4.543l.572 1.58h4.03L22.897.5H18.63zm2.134 3.76 1.35 3.728h-2.702l1.352-3.728zM40.553.5v11.936h9.54V9.51h-5.689V7.901h5.51V5.034h-5.51V3.425h5.57V.5h-9.421zM35.28.5l-2.844 7.848L29.592.5h-4.03l4.74 11.936h4.267L39.309.5h-4.03zM8.736.5v6.388L4.233.5H.5v11.936h3.91V6.047l4.504 6.389h3.732V.5h-3.91zM57.794 6.058h-2.073V3.542h2.073c.704 0 1.274.563 1.274 1.258 0 .695-.57 1.258-1.274 1.258zm2.633 2.283.366-.152c1.405-.58 2.12-1.836 2.12-3.43 0-1.508-.557-2.624-1.656-3.316C60.237.8 58.912.5 57.091.5h-5.103v11.936h3.792V9.1h1.363l2.31 3.335h4.03L60.426 8.34z" fill="#03C75A"/>
</svg>
