<svg width="62" height="16" viewBox="0 0 62 16" fill="none" xmlns="http://www.w3.org/2000/svg">
<path d="M10.8621 16V6.95879H7.2071C7.11558 7.38684 6.9497 7.80333 6.70946 8.20824C6.46923 8.61316 6.10887 9.03543 5.6284 9.47506C5.14793 9.91468 4.52446 10.3948 3.75799 10.9154C2.99152 11.436 2.02485 12.026 0.857988 12.6855L0.0343195 11.3145C1.00671 10.7708 1.82465 10.2849 2.48816 9.85683C3.15167 9.42878 3.69507 9.03543 4.11834 8.67679C4.54162 8.31815 4.86193 7.98843 5.07929 7.68764C5.30808 7.37527 5.46824 7.06869 5.55976 6.7679L0.0514792 6.92408L0 5.48373L5.67988 5.37961V2.89805H0.326035V1.44035H7.36154V5.44903H10.8621V0H12.5609V16H10.8621Z" fill="black"/>
<path d="M26.4168 16V7.08026H23.3109V11.7831H15.7606V1.44035H23.3109V5.5705H26.4168V0H28.1156V16H26.4168ZM17.4423 10.308H21.6293V2.9154H17.4423V10.308Z" fill="black"/>
<path d="M44.8887 12.4078V13.8655H30.3715V12.4078H44.8887ZM37.6301 6.0564C37.5386 6.25307 37.3212 6.50181 36.978 6.8026C36.6463 7.1034 36.1887 7.4389 35.6053 7.80911C35.1019 8.13305 34.5699 8.46855 34.0094 8.81562C33.4488 9.15112 32.8082 9.52133 32.0875 9.92625L31.2467 8.57267C31.9331 8.19089 32.5623 7.83225 33.1342 7.49675C33.7062 7.16124 34.2782 6.79682 34.8502 6.40347C35.2392 6.13738 35.5595 5.88286 35.8112 5.63991C36.0628 5.39696 36.2573 5.14244 36.3946 4.87636C36.5433 4.61027 36.6406 4.32104 36.6863 4.00868C36.7435 3.68474 36.7721 3.30875 36.7721 2.88069V1.12798H38.4881V2.88069C38.4881 3.30875 38.511 3.68474 38.5567 4.00868C38.6025 4.32104 38.6997 4.61605 38.8484 4.89371C38.9972 5.1598 39.2088 5.4201 39.4834 5.67462C39.7579 5.92914 40.1297 6.21258 40.5987 6.52495C41.1364 6.88359 41.6741 7.21909 42.2118 7.53145C42.7494 7.84382 43.3557 8.18511 44.0307 8.55532L43.207 9.89154C42.5664 9.52133 41.9429 9.16269 41.3366 8.81562C40.7303 8.45698 40.1697 8.10991 39.655 7.7744C39.0944 7.41576 38.6425 7.09183 38.2993 6.8026C37.9561 6.50181 37.7388 6.25307 37.6473 6.0564H37.6301Z" fill="black"/>
<path d="M49.5636 1.50976V14.0217H47.8648V1.50976H49.5636Z" fill="black"/>
<path d="M56.3418 1.50976C58.0463 1.50976 59.339 1.97252 60.2199 2.89805C61.1008 3.812 61.5412 5.13666 61.5412 6.87202V8.65944C61.5412 10.3948 61.1122 11.7252 60.2542 12.6508C59.3962 13.5647 58.0921 14.0217 56.3418 14.0217H52.2406V1.50976H56.3418ZM53.9394 12.4946H56.1873C56.7364 12.4946 57.2341 12.4252 57.6802 12.2863C58.1264 12.1359 58.5039 11.9046 58.8128 11.5922C59.1331 11.2798 59.3791 10.8749 59.5507 10.3774C59.7223 9.87997 59.8081 9.27838 59.8081 8.57267V6.95879C59.8081 6.25307 59.7223 5.65148 59.5507 5.15401C59.3791 4.65654 59.1331 4.25163 58.8128 3.93926C58.5039 3.61533 58.1264 3.38395 57.6802 3.24512C57.2341 3.09472 56.7364 3.01952 56.1873 3.01952H53.9394V12.4946Z" fill="black"/>
</svg>
