<svg width="93" height="24" viewBox="0 0 93 24" fill="none" xmlns="http://www.w3.org/2000/svg">
<path d="M16.4872 24V10.4382H10.9393C10.8004 11.0803 10.5487 11.705 10.184 12.3124C9.81936 12.9197 9.2724 13.5531 8.54311 14.2126C7.81382 14.872 6.86748 15.5922 5.70409 16.3731C4.5407 17.154 3.07343 18.039 1.3023 19.0282L0.0520922 16.9718C1.52804 16.1562 2.76956 15.4273 3.77668 14.7852C4.78379 14.1432 5.60858 13.5531 6.25105 13.0152C6.89352 12.4772 7.37972 11.9826 7.70963 11.5315C8.05691 11.0629 8.30001 10.603 8.43892 10.1518L0.0781381 10.3861L0 8.2256L8.62125 8.06941V4.34707H0.494875V2.16052H11.1738V8.17354H16.4872V0H19.0657V24H16.4872Z" fill="black"/>
<path d="M40.097 24V10.6204H35.3826V17.6746H23.9224V2.16052H35.3826V8.35575H40.097V0H42.6755V24H40.097ZM26.4749 15.462H32.8301V4.3731H26.4749V15.462Z" fill="black"/>
<path d="M68.1346 18.6117V20.7983H46.0996V18.6117H68.1346ZM57.1171 9.0846C56.9782 9.37961 56.6483 9.75271 56.1274 10.2039C55.6238 10.6551 54.9292 11.1584 54.0437 11.7137C53.2797 12.1996 52.4722 12.7028 51.6214 13.2234C50.7706 13.7267 49.7982 14.282 48.7042 14.8894L47.428 12.859C48.4698 12.2863 49.4249 11.7484 50.2931 11.2451C51.1613 10.7419 52.0295 10.1952 52.8977 9.60521C53.488 9.20607 53.9742 8.8243 54.3562 8.45987C54.7382 8.09545 55.0334 7.71367 55.2418 7.31453C55.4675 6.9154 55.6151 6.48156 55.6846 6.01302C55.7714 5.52712 55.8148 4.96312 55.8148 4.32104V1.69198H58.4194V4.32104C58.4194 4.96312 58.4541 5.52712 58.5236 6.01302C58.5931 6.48156 58.7407 6.92408 58.9664 7.34057C59.1921 7.7397 59.5134 8.13015 59.9301 8.51193C60.3468 8.89371 60.9112 9.31887 61.6231 9.78742C62.4392 10.3254 63.2553 10.8286 64.0714 11.2972C64.8875 11.7657 65.8078 12.2777 66.8323 12.833L65.5821 14.8373C64.6097 14.282 63.6634 13.744 62.7431 13.2234C61.8228 12.6855 60.9719 12.1649 60.1906 11.6616C59.3397 11.1236 58.6538 10.6377 58.1329 10.2039C57.612 9.75271 57.2821 9.37961 57.1432 9.0846H57.1171Z" fill="black"/>
<path d="M74.8198 2.26464V21.0325H72.2412V2.26464H74.8198Z" fill="black"/>
<path d="M85.108 2.26464C87.6953 2.26464 89.6574 2.95879 90.9945 4.34707C92.3315 5.71801 93 7.70499 93 10.308V12.9892C93 15.5922 92.3489 17.5879 91.0466 18.9761C89.7443 20.3471 87.7647 21.0325 85.108 21.0325H78.883V2.26464H85.108ZM81.4616 18.7419H84.8736C85.7071 18.7419 86.4624 18.6377 87.1396 18.4295C87.8168 18.2039 88.3898 17.8568 88.8587 17.3883C89.3449 16.9197 89.7182 16.3124 89.9787 15.5662C90.2391 14.82 90.3694 13.9176 90.3694 12.859V10.4382C90.3694 9.37961 90.2391 8.47722 89.9787 7.73102C89.7182 6.98482 89.3449 6.37744 88.8587 5.9089C88.3898 5.42299 87.8168 5.07592 87.1396 4.86768C86.4624 4.64208 85.7071 4.52929 84.8736 4.52929H81.4616V18.7419Z" fill="black"/>
</svg>
